<?xml version="1.0" encoding="utf-8"?>
<!-- Generator: Adobe Illustrator 23.0.2, SVG Export Plug-In . SVG Version: 6.00 Build 0)  -->
<svg version="1.1" id="Layer_1" xmlns="http://www.w3.org/2000/svg" xmlns:xlink="http://www.w3.org/1999/xlink" x="0px" y="0px"
	 viewBox="0 0 1366 768" style="enable-background:new 0 0 1366 768;" xml:space="preserve">
<style type="text/css">
	.st0{enable-background:new    ;}
	.st1{clip-path:url(#SVGID_2_);enable-background:new    ;}
	.st2{clip-path:url(#SVGID_4_);enable-background:new    ;}
	.st3{fill:#431E1E;}
	.st4{fill:#451F1F;}
	.st5{clip-path:url(#SVGID_6_);enable-background:new    ;}
	.st6{fill:#3F1C1C;}
	.st7{fill:#411D1D;}
	.st8{clip-path:url(#SVGID_8_);enable-background:new    ;}
	.st9{clip-path:url(#SVGID_10_);enable-background:new    ;}
	.st10{fill:#3C1B1B;}
	.st11{clip-path:url(#SVGID_12_);enable-background:new    ;}
	.st12{fill:#4A2121;}
	.st13{clip-path:url(#SVGID_14_);enable-background:new    ;}
	.st14{fill:#3A1A1A;}
	.st15{clip-path:url(#SVGID_16_);enable-background:new    ;}
	.st16{clip-path:url(#SVGID_18_);enable-background:new    ;}
	.st17{fill:#482020;}
	.st18{clip-path:url(#SVGID_20_);enable-background:new    ;}
	.st19{clip-path:url(#SVGID_22_);enable-background:new    ;}
	.st20{clip-path:url(#SVGID_24_);enable-background:new    ;}
	.st21{clip-path:url(#SVGID_26_);enable-background:new    ;}
	.st22{clip-path:url(#SVGID_28_);enable-background:new    ;}
	.st23{clip-path:url(#SVGID_30_);enable-background:new    ;}
	.st24{clip-path:url(#SVGID_32_);enable-background:new    ;}
	.st25{clip-path:url(#SVGID_34_);enable-background:new    ;}
	.st26{clip-path:url(#SVGID_36_);enable-background:new    ;}
	.st27{clip-path:url(#SVGID_38_);enable-background:new    ;}
	.st28{clip-path:url(#SVGID_40_);enable-background:new    ;}
	.st29{clip-path:url(#SVGID_42_);enable-background:new    ;}
	.st30{clip-path:url(#SVGID_44_);enable-background:new    ;}
	.st31{clip-path:url(#SVGID_46_);enable-background:new    ;}
	.st32{clip-path:url(#SVGID_48_);enable-background:new    ;}
	.st33{clip-path:url(#SVGID_50_);enable-background:new    ;}
	.st34{fill:#672E2E;}
	.st35{clip-path:url(#SVGID_52_);enable-background:new    ;}
</style>
<g>
	<g>
		<g class="st0">
			<g class="st0">
				<g>
					<defs>
						<path id="SVGID_1_" d="M978.3,422.4l-10.8,45.1c8.1-33.8-0.2-70.9-24.8-107.4c-33.3-49.5-92.4-92.1-166.4-120
							s-154-37.7-225.3-27.7s-125.4,38.7-152.3,80.8c-7,11-12,22.5-14.8,34.5l10.8-45.1c2.9-12,7.8-23.5,14.8-34.5
							c26.9-42.1,81-70.8,152.3-80.8s151.3-0.2,225.3,27.7s133.1,70.5,166.4,120C978,351.5,986.4,388.5,978.3,422.4z"/>
					</defs>
					<clipPath id="SVGID_2_">
						<use xlink:href="#SVGID_1_"  style="overflow:visible;"/>
					</clipPath>
					<g class="st1">
						<path d="M978.3,422.4l-10.8,45.1c8.1-33.8-0.2-70.9-24.8-107.4c-17.6-26.2-42.5-50.5-73-71.6l10.8-45.1
							c30.5,21.2,55.3,45.4,73,71.6C978,351.5,986.4,388.5,978.3,422.4"/>
						<path d="M880.5,243.3l-10.8,45.1c-12.9-8.9-26.7-17.3-41.5-25.1l10.8-45.1C853.7,226,867.6,234.4,880.5,243.3"/>
						<path d="M839,218.2l-10.8,45.1c-12.5-6.6-25.7-12.7-39.5-18.3l10.8-45.1C813.3,205.5,826.5,211.6,839,218.2"/>
						<path d="M799.5,199.9L788.7,245c-4.1-1.7-8.3-3.3-12.5-4.9c-9.3-3.5-18.7-6.7-28.1-9.6l10.8-45.1c9.4,2.9,18.8,6.1,28.1,9.6
							C791.3,196.6,795.4,198.2,799.5,199.9"/>
						<path d="M758.9,185.3l-10.8,45.1c-14.2-4.4-28.6-8.2-43.1-11.3l10.8-45.1C730.3,177.2,744.7,180.9,758.9,185.3"/>
						<path d="M715.9,174.1l-10.9,45c-16.8-3.6-33.8-6.3-50.6-8.1l10.8-45.1C682.1,167.8,699,170.5,715.9,174.1"/>
						<path d="M665.3,166l-10.8,45.1c-30.8-3.2-61.3-3.4-90.5-0.3l10.8-45.1C604,162.6,634.5,162.8,665.3,166"/>
						<path d="M574.8,165.7l-10.8,45c-4.4,0.5-8.8,1-13.1,1.6c-9.8,1.4-19.2,3.1-28.4,5.2l10.8-45.1c9.1-2.1,18.6-3.8,28.4-5.2
							C566,166.7,570.4,166.1,574.8,165.7"/>
						<path d="M533.4,172.5l-10.8,45.1c-26.8,6.1-50.6,15.1-70.7,26.6l10.8-45.1C482.8,187.5,506.5,178.5,533.4,172.5"/>
						<path d="M462.7,199.1l-10.8,45.1c-11,6.3-20.9,13.4-29.5,21.2l10.8-45.1C441.8,212.5,451.7,205.4,462.7,199.1"/>
						<path d="M433.1,220.3l-10.8,45.1c-7.4,6.7-14,13.9-19.6,21.7l10.8-45.1C419.1,234.3,425.7,227,433.1,220.3"/>
						<path d="M413.5,242l-10.8,45.1c-1.4,2-2.8,4-4.1,6.1c-3.6,5.6-6.6,11.4-9.1,17.3l10.8-45.1c2.5-5.9,5.6-11.7,9.1-17.3
							C410.7,246,412.1,244,413.5,242"/>
						<path d="M400.3,265.3l-10.8,45.1c-2.4,5.6-4.3,11.4-5.7,17.2l10.8-45.1C396,276.7,397.9,271,400.3,265.3"/>
					</g>
				</g>
			</g>
			<g class="st0">
				<g>
					<defs>
						<path id="SVGID_3_" d="M682.5,238.2c3.6-15,7.2-30,10.8-45.1c12.2,2,24.4,4.6,36.4,7.7c-3.6,15-7.2,30-10.8,45.1
							C706.8,242.8,694.7,240.2,682.5,238.2z"/>
					</defs>
					<clipPath id="SVGID_4_">
						<use xlink:href="#SVGID_3_"  style="overflow:visible;"/>
					</clipPath>
					<g class="st2">
						<path class="st3" d="M749.9,206.6l-10.9,45c-12.3-3.8-24.8-7.1-37.4-9.8l10.8-45.1C725.1,199.5,737.6,202.7,749.9,206.6"/>
						<path class="st4" d="M712.5,196.8l-10.8,45.1c-11.8-2.5-23.7-4.6-35.6-6.1c-3-0.4-6-0.7-9-1.1l10.8-45.1c3,0.3,6,0.7,9,1.1
							C688.8,192.2,700.7,194.3,712.5,196.8"/>
					</g>
				</g>
			</g>
			<g class="st0">
				<g>
					<defs>
						<path id="SVGID_5_" d="M718.8,245.9c3.6-15,7.2-30,10.8-45.1c15.1,3.9,30,8.6,44.6,14.1s28.6,11.7,41.8,18.5
							c-3.6,15-7.2,30-10.8,45.1c-13.2-6.8-27.2-13-41.8-18.5S733.9,249.8,718.8,245.9z"/>
					</defs>
					<clipPath id="SVGID_6_">
						<use xlink:href="#SVGID_5_"  style="overflow:visible;"/>
					</clipPath>
					<g class="st5">
						<path class="st6" d="M819.4,235.1l-10.8,45.1c-10.9-5.7-22.3-11-34.2-15.9l10.8-45.1C797.1,224.1,808.5,229.4,819.4,235.1"/>
						<path class="st7" d="M785.2,219.2l-10.8,45.1c-3.6-1.5-7.2-2.9-10.9-4.3c-8.1-3-16.2-5.8-24.4-8.4l10.8-45.1
							c8.2,2.5,16.4,5.3,24.4,8.4C778,216.3,781.6,217.8,785.2,219.2"/>
						<path class="st3" d="M749.9,206.6l-10.9,45c-12.3-3.8-24.8-7.1-37.4-9.8l10.8-45.1C725.1,199.5,737.6,202.7,749.9,206.6"/>
					</g>
				</g>
			</g>
			<g class="st0">
				<g>
					<defs>
						<path id="SVGID_7_" d="M805.3,278.5c3.6-15,7.2-30,10.8-45.1c1,0.5,2.1,1.1,3.1,1.6c-2,8.5-4.1,17-6.1,25.4
							c-0.4,1.8-1,4.1-1.4,5.9c-0.2,0.9-0.5,2-0.7,2.9c-0.4,1.7-0.9,3.9-1.3,5.6c-0.2,0.8-0.5,1.9-0.6,2.7c-0.2,0.8-0.6,1.8-0.6,2.6
							C807.3,279.5,806.3,279,805.3,278.5z"/>
					</defs>
					<clipPath id="SVGID_8_">
						<use xlink:href="#SVGID_7_"  style="overflow:visible;"/>
					</clipPath>
					<g class="st8">
						<path class="st6" d="M819.4,235.1l-10.8,45.1c-10.9-5.7-22.3-11-34.2-15.9l10.8-45.1C797.1,224.1,808.5,229.4,819.4,235.1"/>
					</g>
				</g>
			</g>
			<g class="st0">
				<g>
					<defs>
						<path id="SVGID_9_" d="M810.3,281.1c-0.6-0.3-1.3-0.7-1.9-1c3.6-15,7.2-30,10.8-45.1c0.6,0.3,1.3,0.7,1.9,1
							C817.5,251.1,813.9,266.1,810.3,281.1z"/>
					</defs>
					<clipPath id="SVGID_10_">
						<use xlink:href="#SVGID_9_"  style="overflow:visible;"/>
					</clipPath>
					<g class="st9">
						<path class="st10" d="M855.8,257.1L845,302.2c-11.4-7.9-23.5-15.3-36.4-22l10.8-45.1C832.2,241.9,844.4,249.2,855.8,257.1"/>
						<path class="st6" d="M819.4,235.1l-10.8,45.1c-10.9-5.7-22.3-11-34.2-15.9l10.8-45.1C797.1,224.1,808.5,229.4,819.4,235.1"/>
					</g>
				</g>
			</g>
			<g class="st0">
				<g>
					<defs>
						<path id="SVGID_11_" d="M562.6,236.4c3.6-15,7.2-30,10.8-45.1c1.3-0.2,2.7-0.4,4-0.6c1.3-0.2,2.6-0.4,3.9-0.5
							c-3.6,15-7.2,30-10.8,45.1c-1.3,0.2-2.6,0.3-3.9,0.5C565.3,236,564,236.2,562.6,236.4z"/>
					</defs>
					<clipPath id="SVGID_12_">
						<use xlink:href="#SVGID_11_"  style="overflow:visible;"/>
					</clipPath>
					<g class="st11">
						<path class="st12" d="M589.2,189.3l-10.8,45.1c-3.9,0.4-7.8,0.9-11.7,1.4c-8.6,1.2-17,2.7-25,4.6l10.8-45.1
							c8-1.8,16.4-3.4,25-4.6C581.4,190.2,585.3,189.7,589.2,189.3"/>
					</g>
				</g>
			</g>
			<g class="st0">
				<g>
					<defs>
						<path id="SVGID_13_" d="M810.3,281.1c3.6-15,7.2-30,10.8-45.1c13.4,7.1,26,14.9,37.8,23.3c14.7,10.5,27.7,21.6,38.8,33.3
							c-3.6,15-7.2,30-10.8,45.1c-11.2-11.7-24.2-22.9-38.8-33.3C836.3,296,823.7,288.2,810.3,281.1z"/>
					</defs>
					<clipPath id="SVGID_14_">
						<use xlink:href="#SVGID_13_"  style="overflow:visible;"/>
					</clipPath>
					<g class="st13">
						<path class="st14" d="M941.2,413.7l-10.8,45.1c2.2-9.2,3-18.7,2.5-28.5c-1.3-21.6-9.4-43.7-24.1-65.5s-35.1-42.1-60.7-60.4
							c-1-0.7-2.1-1.5-3.1-2.2l10.8-45.1c1.1,0.7,2.1,1.5,3.1,2.2c25.6,18.2,46,38.5,60.7,60.4c14.7,21.8,22.8,43.9,24.1,65.5
							C944.3,395,943.4,404.5,941.2,413.7"/>
						<path class="st10" d="M855.8,257.1L845,302.2c-11.4-7.9-23.5-15.3-36.4-22l10.8-45.1C832.2,241.9,844.4,249.2,855.8,257.1"/>
					</g>
				</g>
			</g>
			<g class="st0">
				<g>
					<defs>
						<path id="SVGID_15_" d="M886.9,337.7c3.6-15,7.2-30,10.8-45.1c8.3,8.7,15.5,17.6,21.8,26.9c-3.6,15-7.2,30-10.8,45.1
							C902.4,355.3,895.1,346.4,886.9,337.7z"/>
					</defs>
					<clipPath id="SVGID_16_">
						<use xlink:href="#SVGID_15_"  style="overflow:visible;"/>
					</clipPath>
					<g class="st15">
						<path class="st14" d="M941.2,413.7l-10.8,45.1c2.2-9.2,3-18.7,2.5-28.5c-1.3-21.6-9.4-43.7-24.1-65.5s-35.1-42.1-60.7-60.4
							c-1-0.7-2.1-1.5-3.1-2.2l10.8-45.1c1.1,0.7,2.1,1.5,3.1,2.2c25.6,18.2,46,38.5,60.7,60.4c14.7,21.8,22.8,43.9,24.1,65.5
							C944.3,395,943.4,404.5,941.2,413.7"/>
					</g>
				</g>
			</g>
			<g class="st0">
				<g>
					<defs>
						<path id="SVGID_17_" d="M475.8,266.3c3.6-15,7.2-30,10.8-45.1c2.8-1.7,5.7-3.4,8.7-5c22.1-11.9,48.4-20.3,78.2-24.9
							c-3.6,15-7.2,30-10.8,45.1c-29.8,4.6-56.1,12.9-78.2,24.9C481.5,262.9,478.6,264.5,475.8,266.3z"/>
					</defs>
					<clipPath id="SVGID_18_">
						<use xlink:href="#SVGID_17_"  style="overflow:visible;"/>
					</clipPath>
					<g class="st16">
						<path class="st12" d="M589.2,189.3l-10.8,45.1c-3.9,0.4-7.8,0.9-11.7,1.4c-8.6,1.2-17,2.7-25,4.6l10.8-45.1
							c8-1.8,16.4-3.4,25-4.6C581.4,190.2,585.3,189.7,589.2,189.3"/>
						<path class="st17" d="M552.5,195.3l-10.8,45.1c-21.3,4.8-40.5,11.8-57.2,20.9c-1.4,0.8-2.9,1.6-4.2,2.4l10.8-45.1
							c1.4-0.8,2.8-1.6,4.2-2.4C512,207.2,531.2,200.2,552.5,195.3"/>
						<path class="st4" d="M491,218.6l-10.8,45.1c-9.7,5.6-18.4,11.8-26,18.6l10.8-45.1C472.7,230.4,481.3,224.2,491,218.6"/>
					</g>
				</g>
			</g>
			<g class="st0">
				<g>
					<defs>
						<path id="SVGID_19_" d="M924.1,393.2c0-0.2,0.1-0.5,0.2-0.7c0.4-1.8,0.9-3.7,1.3-5.5c0.5-2.1,1-4.1,1.5-6.2
							c2.6-10.9,5.2-21.7,7.8-32.6c5.1,12.4,8,24.8,8.7,37.1c0.1,1.2,0.1,2.5,0.2,3.7c-3.6,15-7.2,30-10.8,45.1
							c0-1.2-0.1-2.5-0.2-3.7C932.1,418,929.2,405.6,924.1,393.2z"/>
					</defs>
					<clipPath id="SVGID_20_">
						<use xlink:href="#SVGID_19_"  style="overflow:visible;"/>
					</clipPath>
					<g class="st18">
						<path class="st14" d="M941.2,413.7l-10.8,45.1c2.2-9.2,3-18.7,2.5-28.5c-1.3-21.6-9.4-43.7-24.1-65.5s-35.1-42.1-60.7-60.4
							c-1-0.7-2.1-1.5-3.1-2.2l10.8-45.1c1.1,0.7,2.1,1.5,3.1,2.2c25.6,18.2,46,38.5,60.7,60.4c14.7,21.8,22.8,43.9,24.1,65.5
							C944.3,395,943.4,404.5,941.2,413.7"/>
					</g>
				</g>
			</g>
			<g class="st0">
				<g>
					<defs>
						<path id="SVGID_21_" d="M932.1,449.8c0.7-5.2,1-10.5,0.9-15.8c3.6-15,7.2-30,10.8-45.1c0.1,5.4-0.2,10.6-0.9,15.8
							C939.3,419.8,935.7,434.8,932.1,449.8z"/>
					</defs>
					<clipPath id="SVGID_22_">
						<use xlink:href="#SVGID_21_"  style="overflow:visible;"/>
					</clipPath>
					<g class="st19">
						<path class="st14" d="M941.2,413.7l-10.8,45.1c2.2-9.2,3-18.7,2.5-28.5c-1.3-21.6-9.4-43.7-24.1-65.5s-35.1-42.1-60.7-60.4
							c-1-0.7-2.1-1.5-3.1-2.2l10.8-45.1c1.1,0.7,2.1,1.5,3.1,2.2c25.6,18.2,46,38.5,60.7,60.4c14.7,21.8,22.8,43.9,24.1,65.5
							C944.3,395,943.4,404.5,941.2,413.7"/>
					</g>
				</g>
			</g>
			<g class="st0">
				<g>
					<defs>
						<path id="SVGID_23_" d="M932.1,449.8c0.1-0.4,0.2-1,0.3-1.4c0.4-1.5,0.7-3.1,1.1-4.6c0.5-2,1-4,1.4-5.9
							c2.7-11,5.3-22.1,8-33.1c-0.4,3-1,6.1-1.7,9l-10.8,45.1C931.1,455.9,931.7,452.8,932.1,449.8z"/>
					</defs>
					<clipPath id="SVGID_24_">
						<use xlink:href="#SVGID_23_"  style="overflow:visible;"/>
					</clipPath>
					<g class="st20">
						<path class="st14" d="M941.2,413.7l-10.8,45.1c2.2-9.2,3-18.7,2.5-28.5c-1.3-21.6-9.4-43.7-24.1-65.5s-35.1-42.1-60.7-60.4
							c-1-0.7-2.1-1.5-3.1-2.2l10.8-45.1c1.1,0.7,2.1,1.5,3.1,2.2c25.6,18.2,46,38.5,60.7,60.4c14.7,21.8,22.8,43.9,24.1,65.5
							C944.3,395,943.4,404.5,941.2,413.7"/>
					</g>
				</g>
			</g>
			<g class="st0">
				<g>
					<defs>
						<path id="SVGID_25_" d="M433.7,306.3c-6.1,9.5-10.4,19.5-12.9,29.9l10.8-45.1c2.5-10.4,6.8-20.4,12.9-29.9
							c9.9-15.5,24-28.9,42.1-40.1c-3.6,15-7.2,30-10.8,45.1C457.7,277.4,443.5,290.9,433.7,306.3z"/>
					</defs>
					<clipPath id="SVGID_26_">
						<use xlink:href="#SVGID_25_"  style="overflow:visible;"/>
					</clipPath>
					<g class="st21">
						<path class="st4" d="M491,218.6l-10.8,45.1c-9.7,5.6-18.4,11.8-26,18.6l10.8-45.1C472.7,230.4,481.3,224.2,491,218.6"/>
						<path class="st3" d="M465.1,237.2l-10.8,45.1c-6.5,5.8-12.2,12.1-17,18.8l10.8-45.1C452.9,249.3,458.6,243.1,465.1,237.2"/>
						<path class="st7" d="M448.1,256l-10.8,45.1c-1.3,1.7-2.5,3.5-3.6,5.3c-3.1,4.9-5.8,9.9-7.9,15l10.8-45.1
							c2.2-5.1,4.8-10.1,7.9-15C445.7,259.5,446.9,257.7,448.1,256"/>
						<path class="st6" d="M436.6,276.3l-10.8,45.1c-2.1,4.9-3.7,9.9-4.9,15l10.8-45.1C432.9,286.2,434.5,281.2,436.6,276.3"/>
					</g>
				</g>
			</g>
			<g class="st0">
				<g>
					<defs>
						<path id="SVGID_27_" d="M940.2,413.4l-10.8,45.1c6.9-28.7,0.4-61-21.5-93.6c-59.9-89-212.5-146.5-340.8-128.5
							c-81.3,11.4-133.3,50.4-145.3,100.1l10.8-45.1c12-49.7,64-88.7,145.3-100.1c128.3-18,280.9,39.5,340.8,128.5
							C940.7,352.4,947.2,384.7,940.2,413.4z"/>
					</defs>
					<clipPath id="SVGID_28_">
						<use xlink:href="#SVGID_27_"  style="overflow:visible;"/>
					</clipPath>
					<g class="st22">
						<path d="M940.2,413.4l-10.8,45.1c6.9-28.7,0.4-61-21.5-93.6c-15.6-23.1-37.4-44.1-63.4-62.2l10.8-45.1
							c26,18.1,47.8,39.1,63.4,62.2C940.7,352.4,947.2,384.7,940.2,413.4"/>
						<path d="M855.3,257.6l-10.8,45.1c-11.4-7.9-23.5-15.2-36.3-22l10.8-45.1C831.8,242.4,844,249.7,855.3,257.6"/>
						<path d="M819,235.7l-10.8,45.1c-11-5.8-22.5-11.1-34.3-16l10.8-45.1C796.5,224.5,808,229.9,819,235.7"/>
						<path d="M784.7,219.7l-10.8,45.1c-11.3-4.6-23-8.8-34.9-12.5l10.8-45.1C761.7,210.9,773.3,215,784.7,219.7"/>
						<path d="M749.8,207.2L739,252.3c-12.3-3.8-24.9-7.1-37.6-9.8l10.8-45.1C724.9,200.1,737.4,203.4,749.8,207.2"/>
						<path d="M712.2,197.3l-10.8,45.1c-14.7-3.1-29.6-5.5-44.5-7.1l10.8-45.1C682.5,191.8,697.5,194.2,712.2,197.3"/>
						<path d="M667.6,190.2l-10.8,45.1c-27.1-2.8-54.3-3-80.6,0l10.8-45.1C613.3,187.3,640.5,187.4,667.6,190.2"/>
						<path d="M587,190.2l-10.8,45.1c-3,0.3-6.1,0.7-9.1,1.1c-8,1.1-15.7,2.5-23.2,4.2l10.8-45.1c7.4-1.6,15.2-3,23.2-4.2
							C580.9,190.9,584,190.6,587,190.2"/>
						<path d="M554.8,195.5L544,240.6c-24.1,5.3-45.2,13.3-62.7,23.4l10.7-45C509.6,208.9,530.6,200.9,554.8,195.5"/>
						<path d="M492,219l-10.8,45c-9.7,5.6-18.4,11.8-26,18.6l10.8-45.1C473.6,230.8,482.3,224.6,492,219"/>
						<path d="M466,237.6l-10.8,45.1c-6.5,5.9-12.2,12.2-17,18.8l10.8-45.1C453.8,249.8,459.5,243.5,466,237.6"/>
						<path d="M449,256.4l-10.8,45.1c-4.6,6.4-8.4,13.1-11.4,20.1l10.8-45.1C440.5,269.5,444.4,262.8,449,256.4"/>
						<path d="M437.6,276.5l-10.8,45.1c-2.1,4.9-3.7,9.9-5,15l10.8-45.1C433.8,286.4,435.5,281.4,437.6,276.5"/>
					</g>
				</g>
			</g>
			<g class="st0">
				<g>
					<defs>
						<path id="SVGID_29_" d="M404.2,428.3c-21.2-34.3-28.1-68.8-20.5-100.4l10.8-45.1c-7.5,31.7-0.6,66.2,20.5,100.4
							C411.4,398.3,407.8,413.3,404.2,428.3z"/>
					</defs>
					<clipPath id="SVGID_30_">
						<use xlink:href="#SVGID_29_"  style="overflow:visible;"/>
					</clipPath>
					<g class="st23">
						<path class="st14" d="M492.4,461.6l-10.8,45.1c-30.5-21.2-55.3-45.4-73-71.6c-24.6-36.5-33-73.6-24.8-107.4l10.8-45.1
							c-8.1,33.8,0.2,70.9,24.8,107.4C437,416.2,461.9,440.5,492.4,461.6"/>
					</g>
				</g>
			</g>
			<g class="st0">
				<g>
					<defs>
						<path id="SVGID_31_" d="M952.6,501.9c-13.4,21-33.6,38.6-59.3,52.3c3.6-15,7.2-30,10.8-45.1c25.7-13.7,45.9-31.3,59.3-52.3
							c7.1-11.1,12-22.7,14.9-34.8l-10.8,45.1C964.6,479.2,959.6,490.9,952.6,501.9z"/>
					</defs>
					<clipPath id="SVGID_32_">
						<use xlink:href="#SVGID_31_"  style="overflow:visible;"/>
					</clipPath>
					<g class="st24">
						<path class="st6" d="M978.3,422.4l-10.8,45.1c-1.4,5.8-3.3,11.6-5.7,17.2l10.8-45.1C975,434,976.9,428.2,978.3,422.4"/>
						<path class="st7" d="M972.6,439.6l-10.8,45.1c-2.5,5.9-5.6,11.7-9.1,17.3c-1.3,2.1-2.7,4.1-4.1,6.1l10.8-45.1
							c1.4-2,2.8-4,4.1-6.1C967,451.3,970.1,445.5,972.6,439.6"/>
						<path class="st3" d="M959.3,462.9L948.4,508c-5.6,7.7-12.1,15-19.6,21.7l10.8-45.1C947.1,477.9,953.7,470.7,959.3,462.9"/>
						<path class="st4" d="M939.7,484.6l-10.8,45.1c-8.7,7.8-18.5,14.9-29.5,21.2l10.8-45.1C921.1,499.5,931,492.4,939.7,484.6"/>
						<path class="st17" d="M910.2,505.8l-10.8,45.1c-20.1,11.6-43.9,20.6-70.7,26.6l10.8-45.1C866.3,526.4,890.1,517.4,910.2,505.8
							"/>
					</g>
				</g>
			</g>
			<g class="st0">
				<g>
					<defs>
						<path id="SVGID_33_" d="M941.2,413.7l-10.8,45.1c-2.5,10.4-6.8,20.5-12.9,30c-11.4,17.9-28.5,33-50.8,45.1
							c-23.1,12.5-50.7,21-82.2,25.5c-31.5,4.4-64.9,4.4-99.3,0c-33.2-4.2-66-12.4-97.5-24.2c-31.4-11.8-59.9-26.8-84.6-44.4
							c-25.6-18.2-46-38.5-60.7-60.4s-22.8-43.9-24.1-65.5c-0.6-9.8,0.3-19.3,2.5-28.5l10.8-45.1c-2.2,9.2-3,18.7-2.5,28.5
							c1.3,21.6,9.4,43.7,24.1,65.5s35.1,42.1,60.7,60.4c24.7,17.6,53.2,32.5,84.6,44.4c31.4,11.8,64.2,20,97.5,24.2
							c34.4,4.4,67.9,4.4,99.3,0c31.5-4.4,59.1-13,82.2-25.5c22.3-12,39.4-27.2,50.8-45.1C934.4,434.2,938.7,424.1,941.2,413.7z"/>
					</defs>
					<clipPath id="SVGID_34_">
						<use xlink:href="#SVGID_33_"  style="overflow:visible;"/>
					</clipPath>
					<g class="st25">
						<path d="M941.2,413.7l-10.8,45.1c-1.2,5.1-2.9,10.1-4.9,14.9l10.8-45.1C938.4,423.8,940,418.8,941.2,413.7"/>
						<path d="M936.3,428.6l-10.8,45.1c-2.2,5.1-4.8,10.1-8,15c-1.1,1.8-2.3,3.6-3.6,5.3l10.8-45.1c1.3-1.7,2.5-3.5,3.6-5.3
							C931.4,438.8,934.1,433.8,936.3,428.6"/>
						<path d="M924.7,449l-10.8,45c-4.8,6.7-10.5,12.9-17,18.8l10.8-45.1C914.2,461.9,919.9,455.6,924.7,449"/>
						<path d="M907.8,467.7L897,512.8c-7.5,6.8-16.2,13-25.9,18.6l10.8-45.1C891.6,480.7,900.2,474.5,907.8,467.7"/>
						<path d="M881.9,486.3L871,531.4c-1.4,0.8-2.8,1.6-4.3,2.4c-16.8,9.1-35.9,16.1-57.2,20.9l10.8-45.1
							c21.3-4.8,40.5-11.8,57.2-20.9C879,487.9,880.4,487.1,881.9,486.3"/>
						<path d="M820.3,509.6l-10.8,45.1c-8,1.8-16.4,3.3-25,4.6c-3.9,0.5-7.8,1-11.7,1.4l10.8-45.1c3.9-0.4,7.8-0.9,11.7-1.4
							C804,513,812.3,511.5,820.3,509.6"/>
						<path d="M783.6,515.6l-10.8,45.1c-25.2,2.6-51.6,2.5-78.6-0.3l10.8-45.1C732.1,518.2,758.4,518.3,783.6,515.6"/>
						<path d="M705,515.3l-10.8,45.1c-3-0.3-6-0.7-9-1.1c-12-1.5-23.9-3.6-35.7-6.1l10.8-45.1c11.8,2.5,23.7,4.6,35.7,6.1
							C699,514.6,702,515,705,515.3"/>
						<path d="M660.3,508.2l-10.8,45.1c-12.6-2.7-25.1-6-37.4-9.8l10.8-45.1C635.3,502.2,647.8,505.5,660.3,508.2"/>
						<path d="M623,498.4l-10.8,45.1c-8.2-2.5-16.4-5.3-24.4-8.4c-3.7-1.4-7.3-2.8-10.9-4.3l10.8-45.1c3.6,1.5,7.2,2.9,10.9,4.3
							C606.6,493,614.8,495.8,623,498.4"/>
						<path d="M587.7,485.7l-10.8,45.1c-11.9-4.9-23.3-10.2-34.2-15.9l10.8-45.1C564.4,475.6,575.8,480.9,587.7,485.7"/>
						<path d="M553.5,469.8l-10.8,45.1c-12.9-6.8-25-14.1-36.4-22l10.8-45.1C528.4,455.7,540.6,463.1,553.5,469.8"/>
						<path d="M517.1,447.8l-10.8,45.1c-1-0.7-2.1-1.5-3.1-2.2c-25.6-18.2-46-38.5-60.7-60.4s-22.8-43.9-24.1-65.5
							c-0.6-9.8,0.3-19.3,2.5-28.5l10.8-45.1c-2.2,9.2-3,18.7-2.5,28.5c1.3,21.6,9.4,43.7,24.1,65.5s35.1,42.1,60.7,60.4
							C515,446.4,516,447.1,517.1,447.8"/>
					</g>
				</g>
			</g>
			<g class="st0">
				<g>
					<defs>
						<path id="SVGID_35_" d="M404.2,428.3c3.6-15,7.2-30,10.8-45.1c1.4,2.2,2.8,4.5,4.3,6.7c2.5,3.7,5.1,7.4,7.9,11
							c-3.6,15-7.2,30-10.8,45.1c-2.8-3.6-5.4-7.3-7.9-11C407,432.8,405.6,430.6,404.2,428.3z"/>
					</defs>
					<clipPath id="SVGID_36_">
						<use xlink:href="#SVGID_35_"  style="overflow:visible;"/>
					</clipPath>
					<g class="st26">
						<path class="st14" d="M492.4,461.6l-10.8,45.1c-30.5-21.2-55.3-45.4-73-71.6c-24.6-36.5-33-73.6-24.8-107.4l10.8-45.1
							c-8.1,33.8,0.2,70.9,24.8,107.4C437,416.2,461.9,440.5,492.4,461.6"/>
					</g>
				</g>
			</g>
			<g class="st0">
				<g>
					<defs>
						<path id="SVGID_37_" d="M893.3,554.2c-25.7,13.7-57,23.4-92.5,28.4c3.6-15,7.2-30,10.8-45.1c35.5-5,66.8-14.7,92.5-28.4
							C900.5,524.2,896.9,539.2,893.3,554.2z"/>
					</defs>
					<clipPath id="SVGID_38_">
						<use xlink:href="#SVGID_37_"  style="overflow:visible;"/>
					</clipPath>
					<g class="st27">
						<path class="st17" d="M910.2,505.8l-10.8,45.1c-20.1,11.6-43.9,20.6-70.7,26.6l10.8-45.1C866.3,526.4,890.1,517.4,910.2,505.8
							"/>
						<path class="st12" d="M839.5,532.5l-10.8,45.1c-9.1,2.1-18.6,3.8-28.4,5.2c-4.3,0.6-8.7,1.1-13.1,1.6l10.8-45.1
							c4.4-0.5,8.8-1,13.1-1.6C820.9,536.3,830.4,534.6,839.5,532.5"/>
					</g>
				</g>
			</g>
			<g class="st0">
				<g>
					<defs>
						<path id="SVGID_39_" d="M799.3,582.8c3.6-15,7.2-30,10.8-45.1c0.3,0,0.6-0.1,1-0.1c0.2,0,0.3,0,0.5-0.1
							c-3.6,15-7.2,30-10.8,45.1c-0.2,0-0.3,0-0.5,0.1C800,582.8,799.6,582.8,799.3,582.8z"/>
					</defs>
					<clipPath id="SVGID_40_">
						<use xlink:href="#SVGID_39_"  style="overflow:visible;"/>
					</clipPath>
					<g class="st28">
						<path class="st12" d="M839.5,532.5l-10.8,45.1c-9.1,2.1-18.6,3.8-28.4,5.2c-4.3,0.6-8.7,1.1-13.1,1.6l10.8-45.1
							c4.4-0.5,8.8-1,13.1-1.6C820.9,536.3,830.4,534.6,839.5,532.5"/>
					</g>
				</g>
			</g>
			<g>
				<path d="M858.9,259.3c25.6,18.2,46,38.5,60.7,60.4c14.7,21.8,22.8,43.9,24.1,65.5c1.2,20.9-3.9,40.6-15.4,58.4
					c-11.4,17.9-28.5,33-50.8,45.1c-23.1,12.5-50.7,21-82.2,25.5c-31.5,4.4-64.9,4.4-99.3,0c-33.2-4.2-66-12.4-97.5-24.2
					c-31.4-11.8-59.9-26.8-84.6-44.4c-25.6-18.2-46-38.5-60.7-60.4s-22.8-43.9-24.1-65.5c-1.2-20.9,3.9-40.6,15.4-58.4
					s28.5-33,50.8-45.1c23.1-12.5,50.7-21,82.2-25.5c31.5-4.4,64.9-4.4,99.3-0.1c33.3,4.2,66.1,12.4,97.5,24.2
					C805.7,226.8,834.2,241.7,858.9,259.3z M794.9,513.6c128.3-18,183.7-104.8,123.8-193.8S706.2,173.3,577.9,191.3
					S394.2,296.1,454.1,385.1C514,474.1,666.6,531.6,794.9,513.6"/>
			</g>
			<g class="st0">
				<g>
					<defs>
						<path id="SVGID_41_" d="M799.3,582.8c-8.6,1.2-17.3,2.1-26.1,2.7c3.6-15,7.2-30,10.8-45.1c8.8-0.6,17.5-1.5,26.1-2.7
							C806.6,552.8,802.9,567.8,799.3,582.8z"/>
					</defs>
					<clipPath id="SVGID_42_">
						<use xlink:href="#SVGID_41_"  style="overflow:visible;"/>
					</clipPath>
					<g class="st29">
						<path class="st12" d="M839.5,532.5l-10.8,45.1c-9.1,2.1-18.6,3.8-28.4,5.2c-4.3,0.6-8.7,1.1-13.1,1.6l10.8-45.1
							c4.4-0.5,8.8-1,13.1-1.6C820.9,536.3,830.4,534.6,839.5,532.5"/>
						<path class="st17" d="M798,539.3l-10.8,45.1c-29.2,3.1-59.7,2.9-90.5-0.3l10.8-45.1C738.3,542.2,768.8,542.3,798,539.3"/>
					</g>
				</g>
			</g>
			<g class="st0">
				<g>
					<defs>
						<path id="SVGID_43_" d="M763.2,586.1c-5.9,0.3-11.8,0.4-17.7,0.4c2-8.5,4.1-17,6.1-25.5c0.2-0.9,0.5-2.1,0.7-2.9
							c0.9-3.8,1.8-7.6,2.7-11.3c0.2-0.8,0.5-1.9,0.6-2.7c0.2-0.8,0.6-1.8,0.6-2.6c5.9,0,11.8-0.2,17.7-0.4
							C770.5,556.1,766.8,571.1,763.2,586.1z"/>
					</defs>
					<clipPath id="SVGID_44_">
						<use xlink:href="#SVGID_43_"  style="overflow:visible;"/>
					</clipPath>
					<g class="st30">
						<path class="st17" d="M798,539.3l-10.8,45.1c-29.2,3.1-59.7,2.9-90.5-0.3l10.8-45.1C738.3,542.2,768.8,542.3,798,539.3"/>
					</g>
				</g>
			</g>
			<g class="st0">
				<g>
					<defs>
						<path id="SVGID_45_" d="M739.9,586.5c3.6-15,7.2-30,10.8-45.1c1.9,0,3.7,0,5.6,0c-3.6,15-7.2,30-10.8,45.1
							C743.7,586.5,741.8,586.5,739.9,586.5z"/>
					</defs>
					<clipPath id="SVGID_46_">
						<use xlink:href="#SVGID_45_"  style="overflow:visible;"/>
					</clipPath>
					<g class="st31">
						<path class="st17" d="M798,539.3l-10.8,45.1c-29.2,3.1-59.7,2.9-90.5-0.3l10.8-45.1C738.3,542.2,768.8,542.3,798,539.3"/>
					</g>
				</g>
			</g>
			<g class="st0">
				<g>
					<defs>
						<path id="SVGID_47_" d="M686.3,582.8c3.6-15,7.2-30,10.8-45.1c18,2.3,36,3.6,53.6,3.7c-3.6,15-7.2,30-10.8,45.1
							C722.2,586.3,704.3,585.1,686.3,582.8z"/>
					</defs>
					<clipPath id="SVGID_48_">
						<use xlink:href="#SVGID_47_"  style="overflow:visible;"/>
					</clipPath>
					<g class="st32">
						<path class="st17" d="M798,539.3l-10.8,45.1c-29.2,3.1-59.7,2.9-90.5-0.3l10.8-45.1C738.3,542.2,768.8,542.3,798,539.3"/>
						<path class="st4" d="M707.5,538.9L696.7,584c-16.8-1.8-33.7-4.5-50.6-8.1l10.8-45.1C673.8,534.5,690.7,537.2,707.5,538.9"/>
					</g>
				</g>
			</g>
			<g class="st0">
				<g>
					<defs>
						<path id="SVGID_49_" d="M416.5,446c3.6-15,7.2-30,10.8-45.1c34.3,44.8,90,83.2,158.5,109c36.2,13.7,73.9,23,111.3,27.8
							c-3.3,13.8-6.7,27.7-10,41.5c-0.2,0.6-0.3,1.3-0.5,1.9c-0.1,0.3-0.2,0.6-0.2,1c0,0.1-0.1,0.3-0.1,0.5c0,0.1-0.1,0.1-0.1,0.2
							c-37.3-4.8-75-14.1-111.2-27.8C506.5,529.2,450.8,490.8,416.5,446z"/>
					</defs>
					<clipPath id="SVGID_50_">
						<use xlink:href="#SVGID_49_"  style="overflow:visible;"/>
					</clipPath>
					<g class="st33">
						<path class="st4" d="M707.5,538.9L696.7,584c-16.8-1.8-33.7-4.5-50.6-8.1l10.8-45.1C673.8,534.5,690.7,537.2,707.5,538.9"/>
						<path class="st3" d="M657,530.9L646.2,576c-14.4-3.1-28.8-6.9-43.1-11.3l10.8-45.1C628.2,524,642.5,527.8,657,530.9"/>
						<path class="st7" d="M613.9,519.6l-10.8,45.1c-9.5-2.9-18.8-6.1-28.1-9.6c-4.2-1.6-8.4-3.2-12.5-4.9l10.8-45.1
							c4.1,1.7,8.3,3.3,12.5,4.9C595.1,513.5,604.5,516.7,613.9,519.6"/>
						<path class="st6" d="M573.3,505.1l-10.8,45.1c-13.7-5.6-26.9-11.8-39.5-18.3l10.8-45.1C546.4,493.3,559.6,499.4,573.3,505.1"
							/>
						<path class="st10" d="M533.9,486.7L523,531.8c-14.7-7.8-28.6-16.1-41.5-25.1l10.8-45.1C505.2,470.6,519.1,479,533.9,486.7"/>
						<path class="st14" d="M492.4,461.6l-10.8,45.1c-30.5-21.2-55.3-45.4-73-71.6c-24.6-36.5-33-73.6-24.8-107.4l10.8-45.1
							c-8.1,33.8,0.2,70.9,24.8,107.4C437,416.2,461.9,440.5,492.4,461.6"/>
					</g>
				</g>
			</g>
			<g>
				<path class="st34" d="M787,195c74,27.9,133.1,70.5,166.4,120c33.3,49.5,36.9,99.9,10,141.9c-26.9,42.1-81,70.8-152.3,80.8
					s-151.4,0.2-225.3-27.7c-74-27.9-133.1-70.5-166.4-120s-36.9-99.9-10-141.9c26.9-42.1,81-70.8,152.3-80.8
					C633,157.3,713.1,167.1,787,195z M928.3,443.7c11.4-17.9,16.6-37.5,15.4-58.4c-1.3-21.6-9.4-43.7-24.1-65.5
					c-14.7-21.8-35.1-42.1-60.7-60.4c-24.7-17.6-53.2-32.5-84.6-44.4c-31.4-11.8-64.2-20-97.5-24.2c-34.4-4.4-67.8-4.4-99.3,0.1
					c-31.5,4.4-59.1,13-82.2,25.5c-22.3,12.1-39.4,27.2-50.8,45.1s-16.6,37.5-15.4,58.4c1.3,21.6,9.4,43.7,24.1,65.5
					s35.1,42.1,60.7,60.4c24.7,17.6,53.2,32.5,84.6,44.4c31.4,11.8,64.2,20,97.5,24.2c34.4,4.4,67.9,4.4,99.3,0
					c31.5-4.4,59.1-13,82.2-25.5C899.8,476.7,916.9,461.5,928.3,443.7"/>
			</g>
			<g class="st0">
				<g>
					<defs>
						<path id="SVGID_51_" d="M979.2,422.6l-10.8,45.1c-2.9,12-7.9,23.6-14.9,34.6c-27,42.2-81.2,71-152.8,81
							c-71.6,10.1-151.9,0.2-226.1-27.8s-133.5-70.7-166.9-120.3c-24.7-36.7-33.1-73.8-24.9-107.8l10.8-45.1
							c-8.2,33.9,0.2,71.1,24.9,107.8c33.4,49.6,92.7,92.4,166.9,120.3c74.2,28,154.5,37.9,226.1,27.8
							c71.6-10.1,125.8-38.8,152.8-81C971.4,446.2,976.3,434.6,979.2,422.6z"/>
					</defs>
					<clipPath id="SVGID_52_">
						<use xlink:href="#SVGID_51_"  style="overflow:visible;"/>
					</clipPath>
					<g class="st35">
						<path d="M979.2,422.6l-10.8,45.1c-1.4,5.9-3.3,11.6-5.7,17.3l10.8-45.1C975.9,434.2,977.8,428.5,979.2,422.6"/>
						<path d="M973.5,439.9L962.7,485c-2.5,5.9-5.6,11.7-9.2,17.4c-1.3,2.1-2.7,4.1-4.2,6.1l10.8-45.1c1.4-2,2.8-4,4.2-6.1
							C967.9,451.6,971,445.8,973.5,439.9"/>
						<path d="M960.2,463.3l-10.8,45.1c-5.6,7.7-12.2,15-19.7,21.7l10.8-45.1C948,478.3,954.6,471.1,960.2,463.3"/>
						<path d="M940.5,485.1l-10.8,45.1c-8.7,7.8-18.6,15-29.6,21.3l10.8-45.1C921.9,500,931.8,492.9,940.5,485.1"/>
						<path d="M910.9,506.4l-10.8,45.1c-20.2,11.6-44,20.6-70.9,26.7l10.8-45.1C866.9,527,890.8,518,910.9,506.4"/>
						<path d="M840,533.1l-10.8,45.1c-9.1,2.1-18.6,3.8-28.4,5.2c-4.4,0.6-8.7,1.2-13.2,1.6l10.8-45.1c4.4-0.5,8.8-1,13.2-1.6
							C821.4,536.9,830.9,535.2,840,533.1"/>
						<path d="M798.4,539.9L787.6,585c-29.3,3.1-59.9,2.9-90.8-0.3l10.8-45.1C738.5,542.8,769.1,543,798.4,539.9"/>
						<path d="M707.6,539.6l-10.8,45.1c-16.9-1.8-33.8-4.5-50.7-8.1l10.8-45.1C673.8,535.1,690.8,537.8,707.6,539.6"/>
						<path d="M656.9,531.5l-10.9,45c-14.5-3.1-28.9-6.9-43.2-11.3l10.8-45.1C628,524.6,642.4,528.4,656.9,531.5"/>
						<path d="M613.7,520.2l-10.8,45.1c-9.5-2.9-18.9-6.2-28.2-9.7c-4.2-1.6-8.4-3.2-12.6-4.9l10.8-45.1c4.1,1.7,8.3,3.3,12.6,4.9
							C594.8,514,604.2,517.2,613.7,520.2"/>
						<path d="M572.9,505.5l-10.8,45.1c-13.8-5.6-27-11.8-39.6-18.4l10.8-45.1C545.9,493.8,559.1,499.9,572.9,505.5"/>
						<path d="M533.3,487.1l-10.8,45.1c-14.8-7.8-28.7-16.2-41.6-25.2l10.8-45.1C504.6,471,518.5,479.4,533.3,487.1"/>
						<path d="M491.7,462l-10.8,45c-30.6-21.2-55.5-45.6-73.2-71.9c-24.7-36.7-33.1-73.8-24.9-107.8l10.8-45.1
							c-8.2,33.9,0.2,71.1,24.9,107.8C436.2,416.4,461.2,440.7,491.7,462"/>
					</g>
				</g>
			</g>
			<g>
				<path d="M787.4,194.5c74.2,28,133.5,70.7,167,120.4c33.4,49.6,37,100.2,10,142.4s-81.2,71-152.8,81
					c-71.6,10.1-151.9,0.2-226.1-27.8S452,439.8,418.6,390.2s-37-100.2-10-142.4s81.2-71,152.8-81
					C632.8,156.6,713.1,166.5,787.4,194.5z M963.4,456.9c26.9-42.1,23.3-92.5-10-141.9C920.1,265.5,861,222.9,787,195
					s-154-37.7-225.3-27.7S436.3,206,409.4,248.1s-23.3,92.5,10,141.9c33.3,49.5,92.4,92.1,166.4,120c74,27.9,154,37.7,225.3,27.7
					C882.5,527.6,936.5,498.9,963.4,456.9"/>
			</g>
		</g>
	</g>
</g>
</svg>
