<?xml version="1.0" encoding="utf-8"?>
<!-- Generator: Adobe Illustrator 23.0.2, SVG Export Plug-In . SVG Version: 6.00 Build 0)  -->
<svg version="1.1" id="Layer_1" xmlns="http://www.w3.org/2000/svg" xmlns:xlink="http://www.w3.org/1999/xlink" x="0px" y="0px"
	 viewBox="0 0 1125 2436" style="enable-background:new 0 0 1125 2436;" xml:space="preserve">
<style type="text/css">
	.st0{fill:#7C0E15;}
	.st1{fill:#730008;}
	.st2{fill:#5F0208;}
	.st3{fill:#F4F4F4;}
	.st4{fill:#B20F17;}
	.st5{fill:#FCFCFC;}
</style>
<image style="overflow:visible;" width="4899" height="10184" xlink:href="BE68440C6BE34986.jpg"  transform="matrix(0.24 0 0 0.24 -29.52 0)">
</image>
<path class="st0" d="M1145.8,1314.2c-8.8-2.9-18.2-5.9-26.5-1.9c-5.5,2.6-9.4,1.3-14-6.2c11.9-40.3,26.4-35.4,40.5-37.9
	C1145.8,1283.5,1145.8,1298.9,1145.8,1314.2z"/>
<path class="st1" d="M235.6,1283.2c3.8,2.3,5.6,19.6,10.9,16.2c-4,13.1-9.9-2.7-10.7,22.7c-1.4,8.8-3.7,7.2-5.8,7.5
	c-3,0.6-5.6-1.5-5.9-16.6C225.1,1285.8,230.5,1285.4,235.6,1283.2z"/>
<path class="st2" d="M619.5,1295.1c0.5,19.5-0.8,31.3-6.5,22.9C614.4,1306.7,616.4,1298.6,619.5,1295.1z"/>
<path class="st2" d="M598.8,1306.2c-1.9-0.6-3.5-2.8-3.9-11.6C596.2,1298.5,597.5,1302.4,598.8,1306.2z"/>
<path class="st3" d="M726.2,1276.9c-0.9,1.4-1.8,2.7-2.7,4.1C724.4,1279.7,725.3,1278.3,726.2,1276.9z"/>
<path class="st4" d="M966.7,1289.4c-10.6,0-21.2,0-31.8,0c0-1.2,0-2.4,0-3.7c10.6,0,21.1,0,31.7,0
	C966.6,1287,966.7,1288.2,966.7,1289.4z"/>
<path class="st4" d="M1033.3,1285.8c9.9,0,19.8,0,29.7,0c0,1.2,0,2.4,0,3.7c-10,0-20,0-30,0
	C1033.1,1288.3,1033.2,1287.1,1033.3,1285.8z"/>
<path class="st4" d="M867.2,1289.3c-9.3,0-18.6,0-27.9,0c0-1.1,0-2.2,0-3.3c9.3,0,18.6,0,28,0
	C867.2,1287.1,867.2,1288.2,867.2,1289.3z"/>
<path class="st4" d="M741,1285.4c8.7,0,17.4,0,26.2,0c0,1.2,0,2.4,0,3.6c-8.6,0-17.2,0-25.7,0C741.3,1287.8,741.2,1286.6,741,1285.4
	z"/>
<path class="st4" d="M641.6,1284.9c8.4,0,16.9,0,25.3,0c0,1.2,0,2.4,0,3.6c-8.6,0-17.2,0-25.7,0
	C641.4,1287.3,641.5,1286.1,641.6,1284.9z"/>
<path class="st4" d="M445.6,1285.7c10,0,19.9,0,29.9,0c0,1.2,0,2.4,0,3.7c-10,0-20,0-30,0C445.6,1288.1,445.6,1286.9,445.6,1285.7z"
	/>
<path class="st4" d="M83.4,1289.3c-8.7,0-17.3,0-26,0c0-1.2,0-2.5,0-3.7c8.7,0,17.4,0,26.1,0C83.4,1286.8,83.4,1288.1,83.4,1289.3z"
	/>
<path class="st4" d="M545.4,1285.6c9.3,0,18.7,0,28,0c0,1.2,0,2.4,0,3.6c-9.3,0-18.6,0-27.9,0C545.5,1288,545.4,1286.8,545.4,1285.6
	z"/>
<path class="st4" d="M185.5,1289.1c-11.2,0-22.3,0-33.5,0c0-0.9,0-1.8,0-2.7c11.2,0,22.3,0,33.5,0
	C185.5,1287.3,185.5,1288.2,185.5,1289.1z"/>
<ellipse class="st4" cx="264.6" cy="1287.7" rx="21.2" ry="2.5"/>
<rect x="1584.2" y="1035.8" class="st5" width="1252.4" height="1012.7"/>
<image style="overflow:visible;" width="3762" height="1061" xlink:href="BE68440C6BE34982.jpg"  transform="matrix(0.24 0 0 0.24 117.12 596.88)">
</image>
</svg>
